<mxfile host="app.diagrams.net" modified="2021-08-31T17:49:54.449Z" agent="5.0 (Windows NT 10.0; Win64; x64) AppleWebKit/537.36 (KHTML, like Gecko) Chrome/92.0.4515.159 Safari/537.36" etag="lz4c-apP19f6kRxSiQ3u" version="15.0.3" type="github">
  <diagram id="uKmJ55o_irxdx7RFXJkl" name="Page-1">
    <mxGraphModel dx="1422" dy="794" grid="1" gridSize="10" guides="1" tooltips="1" connect="1" arrows="1" fold="1" page="1" pageScale="1" pageWidth="827" pageHeight="1169" math="0" shadow="0">
      <root>
        <mxCell id="0" />
        <mxCell id="1" parent="0" />
        <mxCell id="9zyOPdE-6Uh6KOo8ApIy-1" value="Team A" style="ellipse;whiteSpace=wrap;html=1;aspect=fixed;" vertex="1" parent="1">
          <mxGeometry x="40" y="445" width="80" height="80" as="geometry" />
        </mxCell>
        <mxCell id="9zyOPdE-6Uh6KOo8ApIy-2" value="Team B" style="ellipse;whiteSpace=wrap;html=1;aspect=fixed;" vertex="1" parent="1">
          <mxGeometry x="710" y="445" width="80" height="80" as="geometry" />
        </mxCell>
        <mxCell id="9zyOPdE-6Uh6KOo8ApIy-3" value="HTML tags" style="text;html=1;strokeColor=none;fillColor=none;align=center;verticalAlign=middle;whiteSpace=wrap;rounded=0;" vertex="1" parent="1">
          <mxGeometry x="365" y="150" width="90" height="20" as="geometry" />
        </mxCell>
        <mxCell id="9zyOPdE-6Uh6KOo8ApIy-4" value="" style="shape=image;verticalLabelPosition=bottom;labelBackgroundColor=#ffffff;verticalAlign=top;aspect=fixed;imageAspect=0;image=https://www.ac-illust.com/main/profileimages/various/0-01.jpg;" vertex="1" parent="1">
          <mxGeometry x="55" y="535" width="50" height="50" as="geometry" />
        </mxCell>
        <mxCell id="9zyOPdE-6Uh6KOo8ApIy-5" value="" style="shape=image;verticalLabelPosition=bottom;labelBackgroundColor=#ffffff;verticalAlign=top;aspect=fixed;imageAspect=0;image=https://www.ac-illust.com/main/profileimages/various/0-05.jpg;" vertex="1" parent="1">
          <mxGeometry x="725" y="535" width="50" height="50" as="geometry" />
        </mxCell>
        <mxCell id="9zyOPdE-6Uh6KOo8ApIy-6" value="" style="rounded=0;whiteSpace=wrap;html=1;fillColor=#f5f5f5;strokeColor=#666666;fontColor=#333333;" vertex="1" parent="1">
          <mxGeometry x="725" y="250" width="45" height="160" as="geometry" />
        </mxCell>
        <mxCell id="9zyOPdE-6Uh6KOo8ApIy-7" value="" style="rounded=0;whiteSpace=wrap;html=1;fillColor=#f5f5f5;strokeColor=#666666;fontColor=#333333;" vertex="1" parent="1">
          <mxGeometry x="60" y="250" width="45" height="160" as="geometry" />
        </mxCell>
        <mxCell id="9zyOPdE-6Uh6KOo8ApIy-8" value="" style="rounded=0;whiteSpace=wrap;html=1;fillColor=#008a00;strokeColor=#005700;fontColor=#ffffff;" vertex="1" parent="1">
          <mxGeometry x="60" y="310" width="45" height="100" as="geometry" />
        </mxCell>
        <mxCell id="9zyOPdE-6Uh6KOo8ApIy-9" value="" style="rounded=0;whiteSpace=wrap;html=1;fillColor=#008a00;strokeColor=#005700;fontColor=#ffffff;" vertex="1" parent="1">
          <mxGeometry x="725" y="360" width="45" height="50" as="geometry" />
        </mxCell>
        <mxCell id="9zyOPdE-6Uh6KOo8ApIy-10" value="560/1000" style="text;html=1;strokeColor=none;fillColor=none;align=center;verticalAlign=middle;whiteSpace=wrap;rounded=0;" vertex="1" parent="1">
          <mxGeometry x="55" y="420" width="55" height="20" as="geometry" />
        </mxCell>
        <mxCell id="9zyOPdE-6Uh6KOo8ApIy-11" value="200/1000" style="text;html=1;strokeColor=none;fillColor=none;align=center;verticalAlign=middle;whiteSpace=wrap;rounded=0;" vertex="1" parent="1">
          <mxGeometry x="720" y="420" width="55" height="20" as="geometry" />
        </mxCell>
        <mxCell id="9zyOPdE-6Uh6KOo8ApIy-12" value="HTML tags" style="ellipse;whiteSpace=wrap;html=1;" vertex="1" parent="1">
          <mxGeometry x="350" y="130" width="120" height="80" as="geometry" />
        </mxCell>
        <mxCell id="9zyOPdE-6Uh6KOo8ApIy-13" value="&lt;i&gt;Enter the tag name&lt;/i&gt;" style="rounded=0;whiteSpace=wrap;html=1;" vertex="1" parent="1">
          <mxGeometry x="300" y="600" width="220" height="60" as="geometry" />
        </mxCell>
        <mxCell id="9zyOPdE-6Uh6KOo8ApIy-14" value="send" style="rounded=1;whiteSpace=wrap;html=1;fillColor=#60a917;strokeColor=#2D7600;fontColor=#ffffff;" vertex="1" parent="1">
          <mxGeometry x="370" y="680" width="80" height="30" as="geometry" />
        </mxCell>
        <mxCell id="9zyOPdE-6Uh6KOo8ApIy-15" value="" style="shape=rect;strokeColor=none;fillColor=#ffffff;gradientColor=none;shadow=0;" vertex="1" parent="1">
          <mxGeometry x="330" y="260" width="164" height="120" as="geometry" />
        </mxCell>
        <mxCell id="9zyOPdE-6Uh6KOo8ApIy-16" value="duongnt (you)" style="shape=rect;strokeColor=none;fontSize=10;fontColor=#000000;resizeWidth=1;align=left;spacingLeft=25;spacingTop=2;" vertex="1" parent="9zyOPdE-6Uh6KOo8ApIy-15">
          <mxGeometry width="164" height="20" relative="1" as="geometry" />
        </mxCell>
        <mxCell id="9zyOPdE-6Uh6KOo8ApIy-17" value="" style="shape=rect;rounded=1;rSize=3;strokeColor=none;fillColor=#FF9501;" vertex="1" parent="9zyOPdE-6Uh6KOo8ApIy-16">
          <mxGeometry y="0.5" width="15" height="15" relative="1" as="geometry">
            <mxPoint x="5" y="-7.5" as="offset" />
          </mxGeometry>
        </mxCell>
        <mxCell id="9zyOPdE-6Uh6KOo8ApIy-18" value="trongpq" style="shape=rect;strokeColor=none;fontSize=10;fontColor=#000000;resizeWidth=1;align=left;spacingLeft=25;spacingTop=2;" vertex="1" parent="9zyOPdE-6Uh6KOo8ApIy-15">
          <mxGeometry width="165" height="20" relative="1" as="geometry">
            <mxPoint y="20" as="offset" />
          </mxGeometry>
        </mxCell>
        <mxCell id="9zyOPdE-6Uh6KOo8ApIy-19" value="" style="shape=rect;rounded=1;rSize=3;strokeColor=none;fillColor=#FF3B2F;" vertex="1" parent="9zyOPdE-6Uh6KOo8ApIy-18">
          <mxGeometry y="0.5" width="15" height="15" relative="1" as="geometry">
            <mxPoint x="5" y="-7.5" as="offset" />
          </mxGeometry>
        </mxCell>
        <mxCell id="9zyOPdE-6Uh6KOo8ApIy-20" value="85" style="text;html=1;strokeColor=none;fillColor=none;align=center;verticalAlign=middle;whiteSpace=wrap;rounded=0;" vertex="1" parent="9zyOPdE-6Uh6KOo8ApIy-18">
          <mxGeometry x="125" width="40" height="20" as="geometry" />
        </mxCell>
        <mxCell id="9zyOPdE-6Uh6KOo8ApIy-21" value="hanhtt" style="shape=rect;strokeColor=none;fontSize=10;fontColor=#000000;resizeWidth=1;align=left;spacingLeft=25;spacingTop=2;" vertex="1" parent="9zyOPdE-6Uh6KOo8ApIy-15">
          <mxGeometry width="164" height="20" relative="1" as="geometry">
            <mxPoint y="40" as="offset" />
          </mxGeometry>
        </mxCell>
        <mxCell id="9zyOPdE-6Uh6KOo8ApIy-22" value="" style="shape=rect;rounded=1;rSize=3;strokeColor=none;fillColor=#4CDA64;" vertex="1" parent="9zyOPdE-6Uh6KOo8ApIy-21">
          <mxGeometry y="0.5" width="15" height="15" relative="1" as="geometry">
            <mxPoint x="5" y="-7.5" as="offset" />
          </mxGeometry>
        </mxCell>
        <mxCell id="9zyOPdE-6Uh6KOo8ApIy-23" value="56" style="text;html=1;strokeColor=none;fillColor=none;align=center;verticalAlign=middle;whiteSpace=wrap;rounded=0;" vertex="1" parent="9zyOPdE-6Uh6KOo8ApIy-21">
          <mxGeometry x="124" width="40" height="20" as="geometry" />
        </mxCell>
        <mxCell id="9zyOPdE-6Uh6KOo8ApIy-24" value="diemht" style="shape=rect;strokeColor=none;fontSize=10;fontColor=#000000;resizeWidth=1;align=left;spacingLeft=25;spacingTop=2;" vertex="1" parent="9zyOPdE-6Uh6KOo8ApIy-15">
          <mxGeometry width="165" height="20" relative="1" as="geometry">
            <mxPoint y="60" as="offset" />
          </mxGeometry>
        </mxCell>
        <mxCell id="9zyOPdE-6Uh6KOo8ApIy-25" value="" style="shape=rect;rounded=1;rSize=3;strokeColor=none;fillColor=#007AFF;" vertex="1" parent="9zyOPdE-6Uh6KOo8ApIy-24">
          <mxGeometry y="0.5" width="15" height="15" relative="1" as="geometry">
            <mxPoint x="5" y="-7.5" as="offset" />
          </mxGeometry>
        </mxCell>
        <mxCell id="9zyOPdE-6Uh6KOo8ApIy-26" value="44" style="text;html=1;strokeColor=none;fillColor=none;align=center;verticalAlign=middle;whiteSpace=wrap;rounded=0;" vertex="1" parent="9zyOPdE-6Uh6KOo8ApIy-24">
          <mxGeometry x="125" width="40" height="20" as="geometry" />
        </mxCell>
        <mxCell id="9zyOPdE-6Uh6KOo8ApIy-27" value="cuongph" style="shape=rect;strokeColor=none;fontSize=10;fontColor=#000000;resizeWidth=1;align=left;spacingLeft=25;spacingTop=2;" vertex="1" parent="9zyOPdE-6Uh6KOo8ApIy-15">
          <mxGeometry width="164" height="20" relative="1" as="geometry">
            <mxPoint y="80" as="offset" />
          </mxGeometry>
        </mxCell>
        <mxCell id="9zyOPdE-6Uh6KOo8ApIy-28" value="" style="shape=rect;rounded=1;rSize=3;strokeColor=none;fillColor=#5855D6;" vertex="1" parent="9zyOPdE-6Uh6KOo8ApIy-27">
          <mxGeometry y="0.5" width="15" height="15" relative="1" as="geometry">
            <mxPoint x="5" y="-7.5" as="offset" />
          </mxGeometry>
        </mxCell>
        <mxCell id="9zyOPdE-6Uh6KOo8ApIy-29" value="duyvd" style="shape=rect;strokeColor=none;fontSize=10;fontColor=#000000;resizeWidth=1;align=left;spacingLeft=25;spacingTop=2;" vertex="1" parent="9zyOPdE-6Uh6KOo8ApIy-15">
          <mxGeometry width="164" height="20" relative="1" as="geometry">
            <mxPoint y="100" as="offset" />
          </mxGeometry>
        </mxCell>
        <mxCell id="9zyOPdE-6Uh6KOo8ApIy-30" value="" style="shape=rect;rounded=1;rSize=3;strokeColor=none;fillColor=#8F8E94;" vertex="1" parent="9zyOPdE-6Uh6KOo8ApIy-29">
          <mxGeometry y="0.5" width="15" height="15" relative="1" as="geometry">
            <mxPoint x="5" y="-7.5" as="offset" />
          </mxGeometry>
        </mxCell>
        <mxCell id="9zyOPdE-6Uh6KOo8ApIy-31" value="100" style="text;html=1;strokeColor=none;fillColor=none;align=center;verticalAlign=middle;whiteSpace=wrap;rounded=0;" vertex="1" parent="1">
          <mxGeometry x="455" y="260" width="40" height="20" as="geometry" />
        </mxCell>
      </root>
    </mxGraphModel>
  </diagram>
</mxfile>
